HIERARCHY
ROOT Hips
{
	OFFSET 0.000000 0.000000 0.000000
	CHANNELS 6 Xposition Yposition Zposition Zrotation Yrotation Xrotation 
	JOINT LHipJoint
	{
		OFFSET 0.000000 0.000000 0.000000
		CHANNELS 3 Zrotation Yrotation Xrotation
		JOINT LeftUpLeg
		{
			OFFSET 1.363060 -1.794630 0.839290
			CHANNELS 3 Zrotation Yrotation Xrotation
			JOINT LeftLeg
			{
				OFFSET 2.448110 -6.726130 0.000000
				CHANNELS 3 Zrotation Yrotation Xrotation
				JOINT LeftFoot
				{
					OFFSET 2.562200 -7.039590 0.000000
					CHANNELS 3 Zrotation Yrotation Xrotation
					JOINT LeftToeBase
					{
						OFFSET 0.157640 -0.433110 2.322550
						CHANNELS 3 Zrotation Yrotation Xrotation
						End Site
						{
							OFFSET 0.000000 0.000000 0.000000
						}
					}
				}
			}
		}
	}
	JOINT RHipJoint
	{
		OFFSET 0.000000 0.000000 0.000000
		CHANNELS 3 Zrotation Yrotation Xrotation
		JOINT RightUpLeg
		{
			OFFSET -1.305520 -1.794630 0.839290
			CHANNELS 3 Zrotation Yrotation Xrotation
			JOINT RightLeg
			{
				OFFSET -2.542530 -6.985550 0.000000
				CHANNELS 3 Zrotation Yrotation Xrotation
				JOINT RightFoot
				{
					OFFSET -2.568260 -7.056230 0.000000
					CHANNELS 3 Zrotation Yrotation Xrotation
					JOINT RightToeBase
					{
						OFFSET -0.164730 -0.452590 2.363150
						CHANNELS 3 Zrotation Yrotation Xrotation
						End Site
						{
							OFFSET 0.000000 0.000000 0.000000
						}
					}
				}
			}
		}
	}
	JOINT LowerBack
	{
		OFFSET 0.000000 0.000000 0.000000
		CHANNELS 3 Zrotation Yrotation Xrotation
		JOINT Spine
		{
			OFFSET 0.028270 2.035590 -0.193380
			CHANNELS 3 Zrotation Yrotation Xrotation
			JOINT Spine1
			{
				OFFSET 0.056720 2.048850 -0.042750
				CHANNELS 3 Zrotation Yrotation Xrotation
				JOINT Neck
				{
					OFFSET 0.000000 0.000000 0.000000
					CHANNELS 3 Zrotation Yrotation Xrotation
					JOINT Neck1
					{
						OFFSET -0.054170 1.746240 0.172020
						CHANNELS 3 Zrotation Yrotation Xrotation
						JOINT Head
						{
							OFFSET 0.104070 1.761360 -0.123970
							CHANNELS 3 Zrotation Yrotation Xrotation
							End Site
							{
								OFFSET 0.000000 0.000000 0.000000
							}
						}
					}
				}
				JOINT LeftShoulder
				{
					OFFSET 0.000000 0.000000 0.000000
					CHANNELS 3 Zrotation Yrotation Xrotation
					JOINT LeftArm
					{
						OFFSET 3.362410 1.200890 -0.311210
						CHANNELS 3 Zrotation Yrotation Xrotation
						JOINT LeftForeArm
						{
							OFFSET 4.983000 -0.000000 -0.000000
							CHANNELS 3 Zrotation Yrotation Xrotation
							JOINT LeftHand
							{
								OFFSET 3.483560 -0.000000 -0.000000
								CHANNELS 3 Zrotation Yrotation Xrotation
								JOINT LeftFingerBase
								{
									OFFSET 0.000000 0.000000 0.000000
									CHANNELS 3 Zrotation Yrotation Xrotation
									JOINT LeftHandIndex1
									{
										OFFSET 0.715260 -0.000000 -0.000000
										CHANNELS 3 Zrotation Yrotation Xrotation
										End Site
										{
											OFFSET 0.000000 0.000000 0.000000
										}
									}
								}
								JOINT LThumb
								{
									OFFSET 0.000000 0.000000 0.000000
									CHANNELS 3 Zrotation Yrotation Xrotation
									End Site
									{
										OFFSET 0.000000 0.000000 0.000000
									}
								}
							}
						}
					}
				}
				JOINT RightShoulder
				{
					OFFSET 0.000000 0.000000 0.000000
					CHANNELS 3 Zrotation Yrotation Xrotation
					JOINT RightArm
					{
						OFFSET -3.136600 1.374050 -0.404650
						CHANNELS 3 Zrotation Yrotation Xrotation
						JOINT RightForeArm
						{
							OFFSET -5.241900 -0.000000 -0.000000
							CHANNELS 3 Zrotation Yrotation Xrotation
							JOINT RightHand
							{
								OFFSET -3.444170 -0.000000 -0.000000
								CHANNELS 3 Zrotation Yrotation Xrotation
								JOINT RightFingerBase
								{
									OFFSET 0.000000 0.000000 0.000000
									CHANNELS 3 Zrotation Yrotation Xrotation
									JOINT RightHandIndex1
									{
										OFFSET -0.622530 -0.000000 -0.000000
										CHANNELS 3 Zrotation Yrotation Xrotation
										End Site
										{
											OFFSET 0.000000 0.000000 0.000000
										}
									}
								}
								JOINT RThumb
								{
									OFFSET 0.000000 0.000000 0.000000
									CHANNELS 3 Zrotation Yrotation Xrotation
									End Site
									{
										OFFSET 0.000000 0.000000 0.000000
									}
								}
							}
						}
					}
				}
			}
		}
	}
}
MOTION
Frames: 9
Frame Time: 0.008333
-10.861812 17.525248 -51.313436 -9.747807 -7.655751 15.786087 -3.997061 -5.416757 -5.784666 -7.222349 2.928935 -53.634070 8.547776 18.179788 55.726757 2.280139 -5.042422 22.612042 0.340000 -3.747100 -10.366300 8.803870 1.138352 5.919788 16.312367 2.020499 -0.377603 -3.007908 -12.861283 35.867436 -0.663020 -10.394582 32.853584 -2.435600 9.719900 -28.074300 8.428868 4.851361 18.171676 1.661205 7.751999 -1.751655 -4.162974 4.067847 -4.806724 -0.552425 0.690354 -16.190267 0.784345 -0.096378 -0.218380 -1.101700 -0.566500 5.834600 -4.344298 -3.825512 -2.331424 -67.836693 38.899744 46.115472 100.320767 -62.810190 -76.960195 -0.216529 -1.380546 -15.509079 18.095830 -10.733077 -3.150600 -7.125000 0.000000 0.000000 -5.910800 20.126700 3.534600 3.876155 3.430815 -1.499609 72.020936 -2.588797 47.786814 -106.581521 55.737639 -75.492369 1.564262 -1.225289 -6.244335 -29.559489 4.446104 -3.574600 7.125000 0.000000 0.000000 -3.148700 -23.028700 -1.668500 
-10.882955 17.515409 -50.790091 -9.608972 -6.944474 15.420916 -4.297566 -5.419592 -5.367451 -7.891941 3.277979 -51.488225 8.341728 18.065955 55.831745 2.925310 -8.294229 21.171263 0.009200 -0.620300 -1.704500 8.594120 1.462560 5.370011 16.625514 1.032074 -2.261455 -4.290554 -14.021852 40.184177 -0.346551 -10.450031 31.646399 -2.874600 10.489200 -30.575900 8.198935 4.457816 18.253948 1.709556 7.232736 -1.698518 -3.826921 3.792690 -4.669410 -0.625624 0.803487 -16.553077 0.952050 0.083394 -0.236749 -1.039500 -0.470800 5.902800 -4.362712 -3.930552 -2.271885 -69.277461 37.227022 45.264800 100.773105 -62.482606 -77.219367 -0.221257 -1.344424 -14.825357 18.256066 -10.277684 -3.033700 -7.125000 0.000000 0.000000 -5.810700 20.561900 3.417100 3.930605 3.500270 -1.555475 72.513921 -3.796092 47.768187 -101.404995 56.653394 -70.732496 1.497621 -1.265790 -5.102197 -29.120200 4.381712 -3.471400 7.125000 0.000000 0.000000 -2.799100 -23.133000 -1.476100 
-10.898342 17.497929 -50.265909 -9.207452 -6.162239 15.057041 -4.654974 -5.403049 -4.917373 -8.601030 3.323452 -49.096326 7.995850 17.861713 55.361320 3.671425 -11.925733 18.062414 0.002900 0.350700 0.963700 8.399361 1.728022 4.886463 16.539887 -0.132181 -4.241533 -5.676930 -15.088022 44.466940 0.009621 -10.915994 30.521521 -3.272200 11.123100 -32.696200 7.887560 4.123457 18.331700 1.665900 6.771289 -1.717702 -3.852694 3.550006 -4.844264 -0.291730 0.848973 -16.294824 1.041033 0.043613 -0.313257 -1.094600 -0.473400 5.816800 -4.432280 -4.050944 -2.171488 -69.845717 35.462563 45.102480 100.667209 -62.224552 -77.144512 -0.245517 -1.325605 -14.013140 18.754750 -10.094107 -3.061500 -7.125000 0.000000 0.000000 -5.451200 20.710700 3.185300 3.936711 3.571430 -1.625838 73.447671 -5.529401 47.203476 -95.806809 57.407750 -65.639950 1.463647 -1.324719 -3.867521 -29.132372 4.236545 -3.405800 7.125000 0.000000 0.000000 -2.810600 -23.263600 -1.473700 
-10.913100 17.491649 -49.741517 -8.518919 -5.453911 14.788037 -5.051987 -5.356934 -4.443516 -9.626759 3.449869 -46.735997 7.831223 17.678007 54.820378 3.801355 -11.928902 15.091403 0.043600 1.347900 3.706700 8.206601 1.953926 4.399839 16.011481 -1.183475 -6.380675 -7.075990 -16.020804 48.598632 0.395898 -11.484376 29.240825 -3.522200 11.495900 -33.971300 7.229668 3.787406 18.298728 1.616755 6.224742 -1.712624 -3.750590 3.282922 -4.842193 0.153788 0.977012 -16.617714 0.895238 0.066504 -0.196040 -1.302200 -0.473200 5.940100 -4.490661 -4.198361 -2.069021 -70.493598 33.206167 44.818350 100.352402 -61.937977 -76.939912 -0.277391 -1.313538 -13.542309 19.189023 -9.889368 -3.070400 -7.125000 0.000000 0.000000 -5.124800 20.887400 2.972600 3.986507 3.627688 -1.710361 74.239539 -6.939536 46.550379 -89.495571 57.950497 -60.040619 1.448338 -1.372440 -2.971568 -29.532815 4.271654 -3.501300 7.125000 0.000000 0.000000 -3.104400 -23.157500 -1.635700 
-10.920636 17.475007 -49.217545 -7.661540 -4.856542 14.561307 -5.447000 -5.285340 -3.935525 -10.841289 3.679620 -44.502232 7.589266 17.453182 54.095952 4.024837 -12.251733 12.399672 0.106500 2.104200 5.793700 7.978010 2.159521 3.902663 15.159836 -2.115187 -8.678253 -8.496821 -16.864786 52.901002 0.713845 -11.400233 27.482224 -3.869800 11.985100 -35.679200 6.393158 3.403075 18.351021 1.557738 5.598919 -1.760944 -3.535169 2.961977 -5.168442 0.245312 1.129823 -16.214289 0.999683 0.240059 -0.348417 -1.285400 -0.377000 5.803500 -4.575647 -4.335142 -1.978801 -71.354744 31.107053 44.344195 99.838291 -61.666555 -76.608860 -0.304195 -1.300279 -13.417199 19.233450 -9.901584 -3.091700 -7.125000 0.000000 0.000000 -5.078400 20.852200 2.949500 4.010703 3.738742 -1.772324 74.845411 -8.576859 45.966812 -82.865515 58.188748 -54.293870 1.459544 -1.382361 -2.539005 -30.077164 4.195388 -3.537900 7.125000 0.000000 0.000000 -3.525900 -23.198700 -1.855300 
-10.925556 17.458992 -48.701527 -6.756412 -4.421229 14.220925 -5.807172 -5.197076 -3.422755 -12.081424 4.068846 -42.423704 7.323756 17.229653 53.383044 4.382869 -13.256617 10.438068 0.191700 2.819700 7.777200 7.744995 2.348565 3.384841 14.223197 -2.698592 -10.944725 -9.921989 -17.612526 57.202074 0.990981 -11.139214 25.548474 -4.089600 12.278600 -36.725000 5.483482 3.087829 18.665172 1.484756 5.052959 -1.766283 -3.338044 2.683501 -5.392820 0.249683 1.254949 -16.191310 1.139718 0.404305 -0.483249 -1.233500 -0.286800 5.760100 -4.679102 -4.474615 -1.871630 -72.048534 28.528136 44.029759 99.586144 -61.352377 -76.453731 -0.334753 -1.304516 -13.789609 19.497425 -9.629589 -3.046000 -7.125000 0.000000 0.000000 -4.858800 21.117200 2.791900 4.045834 3.859719 -1.842082 75.408129 -9.756406 45.131387 -75.762242 57.991825 -48.347675 1.503539 -1.352868 -2.855384 -30.605822 4.105517 -3.550800 7.125000 0.000000 0.000000 -3.950000 -23.282700 -2.071800 
-10.933511 17.416916 -48.230726 -5.636525 -3.582627 14.550014 -6.091573 -5.172853 -3.020316 -13.417394 3.690141 -41.172606 7.142590 17.053670 52.879294 4.540121 -13.569086 8.797613 0.304000 3.545100 9.800300 7.468126 2.621747 2.764361 13.099511 -3.294479 -14.346340 -11.455946 -18.266112 61.738823 1.377174 -10.933191 22.766395 -4.191600 12.411100 -37.202100 4.437553 2.694599 18.572852 1.402346 4.353783 -1.854859 -3.111548 2.333731 -5.645746 0.350230 1.371536 -16.480057 1.197179 0.519697 -0.558342 -1.255400 -0.230600 5.822400 -4.780382 -4.650100 -1.774802 -72.523279 25.527904 43.809967 99.174540 -61.019535 -76.214406 -0.359364 -1.327336 -14.841630 19.503191 -9.407422 -2.972600 -7.125000 0.000000 0.000000 -4.816500 21.354900 2.741400 4.075786 3.990891 -1.946843 75.979243 -10.934805 44.047763 -69.331878 57.397074 -43.135364 1.581744 -1.278897 -3.857749 -31.032802 3.808290 -3.402300 7.125000 0.000000 0.000000 -4.334100 -23.648900 -2.237700 
-10.951514 17.380805 -47.730931 -4.303627 -2.232472 14.343942 -6.450950 -5.068044 -2.539341 -14.632455 2.984906 -39.040596 6.990831 16.909615 52.441530 4.762518 -14.087841 6.882637 0.318700 3.628700 10.034500 7.177765 2.819812 2.239407 11.975502 -4.441438 -17.312708 -12.914306 -18.806450 66.058692 1.594676 -10.498658 20.263863 -4.259500 12.497900 -37.516900 3.362551 2.107215 18.760513 1.356829 3.411192 -1.919213 -2.648147 1.864274 -6.022345 0.206644 1.454358 -16.135260 1.336309 0.673595 -0.677667 -1.187900 -0.148400 5.722300 -4.883485 -4.799866 -1.667744 -73.035704 22.734209 43.712167 98.950208 -60.700338 -76.078512 -0.364660 -1.339334 -16.154607 19.165602 -9.403739 -2.925900 -7.125000 0.000000 0.000000 -5.035400 21.368100 2.865400 4.106633 4.133970 -2.028699 76.332001 -12.593970 43.013997 -63.888728 56.593518 -38.869621 1.711288 -1.150852 -5.686486 -31.819349 3.258919 -3.117400 7.125000 0.000000 0.000000 -5.038300 -24.315600 -2.526100 
-10.964911 17.333285 -47.244325 -3.091061 -1.103641 14.381930 -6.725713 -4.953217 -2.101734 -15.680532 2.217331 -37.150195 6.883554 16.781500 52.079037 4.998655 -14.707446 5.091208 0.301600 3.531100 9.761100 6.840831 3.030932 1.647874 10.782253 -5.138360 -20.553146 -14.368412 -19.242943 70.323210 1.860603 -10.226973 17.206711 -4.124400 12.324200 -36.888600 2.291667 1.565461 18.874277 1.323164 2.523931 -1.976492 -2.116113 1.421990 -6.236404 -0.052611 1.590387 -16.269026 1.561580 0.937830 -0.712609 -1.049700 -0.008500 5.762500 -4.975166 -4.943037 -1.567929 -73.518679 19.555019 43.496400 98.869614 -60.363983 -76.072611 -0.367468 -1.359457 -17.463276 18.864242 -9.184035 -2.806400 -7.125000 0.000000 0.000000 -5.228300 21.614400 2.946800 4.140855 4.280401 -2.124245 76.467906 -14.209197 41.868477 -59.588990 55.731490 -35.625175 1.804152 -1.038259 -7.342814 -32.363822 3.149703 -3.078400 7.125000 0.000000 0.000000 -5.506100 -24.475200 -2.742200 
